<?xml version="1.0" standalone="no"?>
<!DOCTYPE svg PUBLIC "-//W3C//DTD SVG 20010904//EN"
 "http://www.w3.org/TR/2001/REC-SVG-20010904/DTD/svg10.dtd">
<svg version="1.0" xmlns="http://www.w3.org/2000/svg"
 width="197.000000pt" height="201.000000pt" viewBox="0 0 197.000000 201.000000"
 preserveAspectRatio="xMidYMid meet">

<g transform="translate(0.000000,201.000000) scale(0.100000,-0.100000)"
fill="#000000" stroke="none">
<path d="M1000 1920 c-89 -22 -173 -56 -284 -113 -44 -24 -105 -53 -135 -66
-170 -75 -337 -236 -426 -411 -66 -131 -80 -196 -80 -380 0 -145 3 -174 23
-240 103 -327 374 -567 707 -625 421 -73 816 121 1004 493 67 133 82 188 91
332 5 74 14 169 20 210 22 140 -8 322 -75 449 -94 178 -258 306 -456 355 -92
23 -290 21 -389 -4z m435 -33 c270 -88 446 -320 468 -617 6 -77 -5 -207 -15
-180 -3 8 -14 45 -23 83 -10 37 -33 100 -52 139 -113 236 -329 415 -586 483
-106 29 -271 41 -364 27 -35 -5 -63 -5 -63 -1 0 15 174 72 280 93 14 2 81 3
150 2 103 -3 139 -8 205 -29z m-944 -256 c-334 -332 -419 -822 -199 -1158 90
-139 257 -251 432 -289 105 -22 298 -15 406 15 283 81 549 301 686 567 l45 89
-4 -50 c-6 -62 -55 -196 -101 -278 -107 -190 -316 -347 -546 -409 -123 -33
-339 -33 -459 0 -268 73 -467 235 -580 473 -60 123 -81 219 -81 359 0 237 87
439 262 606 60 58 180 144 200 144 5 0 -22 -31 -61 -69z m399 -101 c68 -24 88
-25 112 -3 30 27 133 23 194 -9 107 -55 192 -207 220 -390 35 -233 -32 -513
-147 -614 -47 -40 -147 -94 -205 -109 -183 -48 -400 29 -493 174 -88 136 -125
402 -85 599 28 139 115 285 198 333 74 42 127 47 206 19z"/>
<path d="M873 1439 c-176 -30 -295 -133 -338 -293 -24 -89 -17 -267 13 -346
50 -128 154 -229 278 -270 175 -59 376 21 478 188 109 181 92 456 -38 599 -83
93 -254 146 -393 122z m174 -49 c53 -12 81 -25 71 -35 -8 -9 -43 -8 -86 1 -19
4 -45 1 -63 -6 -23 -10 -33 -10 -42 -1 -14 14 -72 14 -98 1 -13 -8 -25 -7 -40
0 -26 15 -22 19 38 35 59 16 156 18 220 5z m-266 -80 c13 -8 19 -21 19 -45 0
-34 -1 -35 -39 -35 -33 0 -39 4 -43 23 -10 54 19 80 63 57z m128 1 c7 -5 14
-26 15 -47 1 -39 1 -39 -41 -42 l-43 -3 0 44 c0 24 3 47 7 50 9 10 45 8 62 -2z
m139 -43 l3 -48 -40 0 c-41 0 -41 0 -41 38 0 45 16 64 50 60 22 -3 25 -8 28
-50z m120 40 c7 -7 12 -27 12 -45 0 -32 -1 -33 -45 -33 -43 0 -45 1 -45 29 0
45 51 76 78 49z m-495 -38 c-6 -22 -33 -28 -33 -7 0 16 21 38 31 32 4 -3 5
-14 2 -25z m578 -13 c-13 -13 -31 1 -31 25 0 21 1 21 20 3 13 -12 17 -22 11
-28z m-553 -61 c40 -21 457 -21 496 0 16 7 43 14 61 14 29 0 35 -5 49 -40 31
-77 39 -171 23 -257 -9 -43 -21 -91 -27 -108 l-12 -30 -26 34 c-18 23 -31 56
-39 103 -19 113 -90 196 -176 205 -71 8 -110 -49 -71 -105 22 -32 10 -62 -25
-62 -46 0 -57 23 -32 63 27 44 26 53 -4 82 -80 81 -245 -51 -245 -196 0 -31
-8 -51 -32 -81 l-31 -40 -13 23 c-38 74 -43 265 -9 362 16 44 19 47 51 47 19
0 47 -6 62 -14z m188 -129 c2 -7 -2 -27 -11 -43 -20 -39 -19 -56 6 -88 16 -21
29 -26 64 -26 75 0 105 53 69 122 -13 25 -14 32 -2 39 54 35 168 -71 168 -157
0 -21 -3 -25 -17 -19 -73 30 -123 29 -188 -2 -31 -15 -36 -15 -59 1 -39 25
-104 30 -156 12 -24 -8 -46 -14 -48 -12 -10 11 14 80 39 114 42 57 122 92 135
59z m12 -213 c21 -14 22 -22 22 -155 l0 -139 -31 0 c-73 0 -249 121 -249 171
0 26 60 100 100 120 43 23 127 25 158 3z m263 -7 c34 -23 99 -101 99 -118 0
-6 -22 -32 -50 -60 -56 -55 -157 -109 -208 -109 l-33 0 3 142 c3 141 3 143 28
155 42 21 122 16 161 -10z"/>
</g>
</svg>
